# xmcd
#
# Track frame offsets:
#	150
#	13850
#	25160
#	33881
#	46056
#	55116
#	66969
#	76540
#	87625
#	99567
#	112940
#	122662
#	133605
#	142694
#	152002
#	159906
#	170186
#	181730
#	196649
#	210424
#	225494
#
# Disc length: 3182 seconds
#
# Revision: 1
# Processed by: cddbd v1.5.1PL0 Copyright (c) Steve Scherf et al.
# Submitted via: CDex 1.50Beta5
#
DISCID=fa0c6c15
DTITLE=CODEPINK - SEX FRIEND
DYEAR=1900
DGENRE=Soundtrack
TTITLE0=ダイナマイト亜美/so-new-start
TTITLE1=BGM[いわゆるひとつの青春]
TTITLE2=BGM[これもひとつの青春]
TTITLE3=BGM[まったりイキまショ]
TTITLE4=BGM[保健教師はステキなお仕事]
TTITLE5=BGM[図書室では静粛に]
TTITLE6=BGM[キンパクしています]
TTITLE7=CODEPINK/BGM[空気が悪い]
TTITLE8=BGM[ぬばたまの]
TTITLE9=赤坂真紀/まっくらみちのうた full version
TTITLE10=BGM[LET'Sエロ!!]
TTITLE11=BGM[盛り上がってまいりましたっ!!]
TTITLE12=BGM[骨と肉]
TTITLE13=BGM[津軽はよいとこ一度はおいで]
TTITLE14=BGM[ロマンチックはお好き?]
TTITLE15=BGM[夜の隅で]
TTITLE16=BGM[ちょっとナツメロ]
TTITLE17=ダイナマイト亜美/セックスフレンドビートパンク live remix
TTITLE18=ダイナマイト・亜美/so-new-start KARAOKE
TTITLE19=ダイナマイト・亜美/セックスフレンドビートパンク live remix sing-along
TTITLE20=赤坂真紀/まっくらみちのうた instrumental
EXTD=
EXTT0=
EXTT1=
EXTT2=
EXTT3=
EXTT4=
EXTT5=
EXTT6=
EXTT7=
EXTT8=
EXTT9=
EXTT10=
EXTT11=
EXTT12=
EXTT13=
EXTT14=
EXTT15=
EXTT16=
EXTT17=
EXTT18=
EXTT19=
EXTT20=
PLAYORDER=
